# Blender 4.3.2
# www.blender.org
mtllib Axis_X.mtl
o Cylinder.001
v -0.900000 -0.000000 -0.005000
v 0.900000 0.000000 -0.005000
v -0.900000 -0.000976 -0.004904
v 0.900000 -0.000975 -0.004904
v -0.900000 -0.001913 -0.004619
v 0.900000 -0.001913 -0.004619
v -0.900000 -0.002778 -0.004157
v 0.900000 -0.002778 -0.004157
v -0.900000 -0.003536 -0.003536
v 0.900000 -0.003535 -0.003536
v -0.900000 -0.004157 -0.002778
v 0.900000 -0.004157 -0.002778
v -0.900000 -0.004619 -0.001913
v 0.900000 -0.004619 -0.001913
v -0.900000 -0.004904 -0.000975
v 0.900000 -0.004904 -0.000975
v -0.900000 -0.005000 0.000000
v 0.900000 -0.005000 0.000000
v -0.900000 -0.004904 0.000975
v 0.900000 -0.004904 0.000975
v -0.900000 -0.004619 0.001913
v 0.900000 -0.004619 0.001913
v -0.900000 -0.004157 0.002778
v 0.900000 -0.004157 0.002778
v -0.900000 -0.003536 0.003536
v 0.900000 -0.003535 0.003536
v -0.900000 -0.002778 0.004157
v 0.900000 -0.002778 0.004157
v -0.900000 -0.001913 0.004619
v 0.900000 -0.001913 0.004619
v -0.900000 -0.000976 0.004904
v 0.900000 -0.000975 0.004904
v -0.900000 -0.000000 0.005000
v 0.900000 0.000000 0.005000
v -0.900000 0.000975 0.004904
v 0.900000 0.000976 0.004904
v -0.900000 0.001913 0.004619
v 0.900000 0.001913 0.004619
v -0.900000 0.002778 0.004157
v 0.900000 0.002778 0.004157
v -0.900000 0.003535 0.003536
v 0.900000 0.003536 0.003536
v -0.900000 0.004157 0.002778
v 0.900000 0.004157 0.002778
v -0.900000 0.004619 0.001913
v 0.900000 0.004619 0.001913
v -0.900000 0.004904 0.000975
v 0.900000 0.004904 0.000975
v -0.900000 0.005000 0.000000
v 0.900000 0.005000 0.000000
v -0.900000 0.004904 -0.000975
v 0.900000 0.004904 -0.000975
v -0.900000 0.004619 -0.001913
v 0.900000 0.004619 -0.001913
v -0.900000 0.004157 -0.002778
v 0.900000 0.004157 -0.002778
v -0.900000 0.003535 -0.003536
v 0.900000 0.003536 -0.003536
v -0.900000 0.002778 -0.004157
v 0.900000 0.002778 -0.004157
v -0.900000 0.001913 -0.004619
v 0.900000 0.001913 -0.004619
v -0.900000 0.000975 -0.004904
v 0.900000 0.000976 -0.004904
vn -0.0000 -0.0980 -0.9952
vn -0.0000 -0.2903 -0.9569
vn -0.0000 -0.4714 -0.8819
vn -0.0000 -0.6344 -0.7730
vn -0.0000 -0.7730 -0.6344
vn -0.0000 -0.8819 -0.4714
vn -0.0000 -0.9569 -0.2903
vn -0.0000 -0.9952 -0.0980
vn -0.0000 -0.9952 0.0980
vn -0.0000 -0.9569 0.2903
vn -0.0000 -0.8819 0.4714
vn -0.0000 -0.7730 0.6344
vn -0.0000 -0.6344 0.7730
vn -0.0000 -0.4714 0.8819
vn -0.0000 -0.2903 0.9569
vn -0.0000 -0.0980 0.9952
vn -0.0000 0.0980 0.9952
vn -0.0000 0.2903 0.9569
vn -0.0000 0.4714 0.8819
vn -0.0000 0.6344 0.7730
vn -0.0000 0.7730 0.6344
vn -0.0000 0.8819 0.4714
vn -0.0000 0.9569 0.2903
vn -0.0000 0.9952 0.0980
vn -0.0000 0.9952 -0.0980
vn -0.0000 0.9569 -0.2903
vn -0.0000 0.8819 -0.4714
vn -0.0000 0.7730 -0.6344
vn -0.0000 0.6344 -0.7730
vn -0.0000 0.4714 -0.8819
vn 1.0000 -0.0000 -0.0000
vn -0.0000 0.2903 -0.9569
vn -0.0000 0.0980 -0.9952
vn -1.0000 -0.0000 -0.0000
vn 1.0000 -0.0001 -0.0000
vn 1.0000 0.0001 -0.0000
vn -1.0000 0.0002 -0.0000
vn -1.0000 -0.0002 -0.0000
vn -1.0000 -0.0001 -0.0000
vn -1.0000 0.0001 -0.0000
vt 1.000000 1.000000
vt 0.968750 0.500000
vt 1.000000 0.500000
vt 0.968750 1.000000
vt 0.937500 0.500000
vt 0.937500 1.000000
vt 0.906250 0.500000
vt 0.906250 1.000000
vt 0.875000 0.500000
vt 0.875000 1.000000
vt 0.843750 0.500000
vt 0.843750 1.000000
vt 0.812500 0.500000
vt 0.812500 1.000000
vt 0.781250 0.500000
vt 0.781250 1.000000
vt 0.750000 0.500000
vt 0.750000 1.000000
vt 0.718750 0.500000
vt 0.718750 1.000000
vt 0.687500 0.500000
vt 0.687500 1.000000
vt 0.656250 0.500000
vt 0.656250 1.000000
vt 0.625000 0.500000
vt 0.625000 1.000000
vt 0.593750 0.500000
vt 0.593750 1.000000
vt 0.562500 0.500000
vt 0.562500 1.000000
vt 0.531250 0.500000
vt 0.531250 1.000000
vt 0.500000 0.500000
vt 0.500000 1.000000
vt 0.468750 0.500000
vt 0.468750 1.000000
vt 0.437500 0.500000
vt 0.437500 1.000000
vt 0.406250 0.500000
vt 0.406250 1.000000
vt 0.375000 0.500000
vt 0.375000 1.000000
vt 0.343750 0.500000
vt 0.343750 1.000000
vt 0.312500 0.500000
vt 0.312500 1.000000
vt 0.281250 0.500000
vt 0.281250 1.000000
vt 0.250000 0.500000
vt 0.250000 1.000000
vt 0.218750 0.500000
vt 0.218750 1.000000
vt 0.187500 0.500000
vt 0.187500 1.000000
vt 0.156250 0.500000
vt 0.156250 1.000000
vt 0.125000 0.500000
vt 0.125000 1.000000
vt 0.093750 0.500000
vt 0.093750 1.000000
vt 0.062500 0.500000
vt 0.158156 0.028269
vt 0.471731 0.158156
vt 0.341844 0.471731
vt 0.062500 1.000000
vt 0.031250 0.500000
vt 0.031250 1.000000
vt 0.000000 0.500000
vt 0.796822 0.014612
vt 0.514612 0.203178
vt 0.703178 0.485388
vt 0.296822 0.485388
vt 0.250000 0.490000
vt 0.203178 0.485388
vt 0.158156 0.471731
vt 0.116663 0.449553
vt 0.080294 0.419706
vt 0.050447 0.383337
vt 0.028269 0.341844
vt 0.014612 0.296822
vt 0.010000 0.250000
vt 0.014612 0.203178
vt 0.028269 0.158156
vt 0.050447 0.116663
vt 0.080294 0.080294
vt 0.116663 0.050447
vt 0.203178 0.014612
vt 0.250000 0.010000
vt 0.296822 0.014612
vt 0.341844 0.028269
vt 0.383337 0.050447
vt 0.419706 0.080294
vt 0.449553 0.116663
vt 0.485388 0.203178
vt 0.490000 0.250000
vt 0.485388 0.296822
vt 0.471731 0.341844
vt 0.449553 0.383337
vt 0.419706 0.419706
vt 0.383337 0.449553
vt 0.000000 1.000000
vt 0.750000 0.490000
vt 0.796822 0.485388
vt 0.841844 0.471731
vt 0.883337 0.449553
vt 0.919706 0.419706
vt 0.949553 0.383337
vt 0.971731 0.341844
vt 0.985388 0.296822
vt 0.990000 0.250000
vt 0.985388 0.203178
vt 0.971731 0.158156
vt 0.949553 0.116663
vt 0.919706 0.080294
vt 0.883337 0.050447
vt 0.841844 0.028269
vt 0.750000 0.010000
vt 0.703178 0.014612
vt 0.658156 0.028269
vt 0.616663 0.050447
vt 0.580294 0.080294
vt 0.550447 0.116663
vt 0.528269 0.158156
vt 0.510000 0.250000
vt 0.514612 0.296822
vt 0.528269 0.341844
vt 0.550447 0.383337
vt 0.580294 0.419706
vt 0.616663 0.449553
vt 0.658156 0.471731
s 0
f 2/1/1 3/2/1 1/3/1
f 4/4/2 5/5/2 3/2/2
f 6/6/3 7/7/3 5/5/3
f 8/8/4 9/9/4 7/7/4
f 10/10/5 11/11/5 9/9/5
f 12/12/6 13/13/6 11/11/6
f 14/14/7 15/15/7 13/13/7
f 16/16/8 17/17/8 15/15/8
f 18/18/9 19/19/9 17/17/9
f 20/20/10 21/21/10 19/19/10
f 22/22/11 23/23/11 21/21/11
f 24/24/12 25/25/12 23/23/12
f 26/26/13 27/27/13 25/25/13
f 28/28/14 29/29/14 27/27/14
f 30/30/15 31/31/15 29/29/15
f 32/32/16 33/33/16 31/31/16
f 34/34/17 35/35/17 33/33/17
f 36/36/18 37/37/18 35/35/18
f 38/38/19 39/39/19 37/37/19
f 40/40/20 41/41/20 39/39/20
f 42/42/21 43/43/21 41/41/21
f 44/44/22 45/45/22 43/43/22
f 46/46/23 47/47/23 45/45/23
f 48/48/24 49/49/24 47/47/24
f 50/50/25 51/51/25 49/49/25
f 52/52/26 53/53/26 51/51/26
f 54/54/27 55/55/27 53/53/27
f 56/56/28 57/57/28 55/55/28
f 58/58/29 59/59/29 57/57/29
f 60/60/30 61/61/30 59/59/30
f 38/62/31 22/63/31 6/64/31
f 62/65/32 63/66/32 61/61/32
f 64/67/33 1/68/33 63/66/33
f 31/69/34 47/70/34 63/71/34
f 2/1/1 4/4/1 3/2/1
f 4/4/2 6/6/2 5/5/2
f 6/6/3 8/8/3 7/7/3
f 8/8/4 10/10/4 9/9/4
f 10/10/5 12/12/5 11/11/5
f 12/12/6 14/14/6 13/13/6
f 14/14/7 16/16/7 15/15/7
f 16/16/8 18/18/8 17/17/8
f 18/18/9 20/20/9 19/19/9
f 20/20/10 22/22/10 21/21/10
f 22/22/11 24/24/11 23/23/11
f 24/24/12 26/26/12 25/25/12
f 26/26/13 28/28/13 27/27/13
f 28/28/14 30/30/14 29/29/14
f 30/30/15 32/32/15 31/31/15
f 32/32/16 34/34/16 33/33/16
f 34/34/17 36/36/17 35/35/17
f 36/36/18 38/38/18 37/37/18
f 38/38/19 40/40/19 39/39/19
f 40/40/20 42/42/20 41/41/20
f 42/42/21 44/44/21 43/43/21
f 44/44/22 46/46/22 45/45/22
f 46/46/23 48/48/23 47/47/23
f 48/48/24 50/50/24 49/49/24
f 50/50/25 52/52/25 51/51/25
f 52/52/26 54/54/26 53/53/26
f 54/54/27 56/56/27 55/55/27
f 56/56/28 58/58/28 57/57/28
f 58/58/29 60/60/29 59/59/29
f 60/60/30 62/65/30 61/61/30
f 6/64/31 4/72/31 2/73/31
f 2/73/31 64/74/31 62/75/31
f 62/75/31 60/76/31 58/77/31
f 58/77/31 56/78/31 54/79/31
f 54/79/31 52/80/31 50/81/31
f 50/81/31 48/82/31 46/83/31
f 46/83/31 44/84/31 42/85/31
f 42/85/31 40/86/31 38/62/31
f 38/62/31 36/87/31 34/88/31
f 34/88/31 32/89/31 30/90/31
f 30/90/31 28/91/31 26/92/31
f 26/92/31 24/93/31 22/63/31
f 22/63/31 20/94/31 18/95/31
f 18/95/31 16/96/31 14/97/31
f 14/97/31 12/98/31 10/99/31
f 10/99/31 8/100/31 6/64/31
f 6/64/31 2/73/31 62/75/31
f 62/75/31 58/77/31 54/79/31
f 54/79/31 50/81/31 46/83/31
f 46/83/31 42/85/31 38/62/31
f 38/62/31 34/88/31 30/90/31
f 30/90/31 26/92/31 22/63/31
f 22/63/31 18/95/31 14/97/31
f 14/97/31 10/99/31 6/64/31
f 6/64/31 62/75/31 54/79/31
f 54/79/35 46/83/35 38/62/35
f 38/62/31 30/90/31 22/63/31
f 22/63/36 14/97/36 6/64/36
f 6/64/31 54/79/31 38/62/31
f 62/65/32 64/67/32 63/66/32
f 64/67/33 2/101/33 1/68/33
f 63/71/34 1/102/34 3/103/34
f 3/103/34 5/104/34 7/105/34
f 7/105/34 9/106/34 11/107/34
f 11/107/34 13/108/34 15/109/34
f 15/109/34 17/110/34 19/111/34
f 19/111/34 21/112/34 23/113/34
f 23/113/34 25/114/34 27/115/34
f 27/115/34 29/116/34 31/69/34
f 31/69/34 33/117/34 35/118/34
f 35/118/34 37/119/34 39/120/34
f 39/120/34 41/121/34 43/122/34
f 43/122/34 45/123/34 47/70/34
f 47/70/34 49/124/34 51/125/34
f 51/125/34 53/126/34 55/127/34
f 55/127/34 57/128/34 59/129/34
f 59/129/34 61/130/34 63/71/34
f 63/71/34 3/103/34 7/105/34
f 7/105/37 11/107/37 15/109/37
f 15/109/37 19/111/37 23/113/37
f 23/113/34 27/115/34 31/69/34
f 31/69/34 35/118/34 39/120/34
f 39/120/38 43/122/38 47/70/38
f 47/70/38 51/125/38 55/127/38
f 55/127/34 59/129/34 63/71/34
f 63/71/39 7/105/39 15/109/39
f 15/109/34 23/113/34 31/69/34
f 31/69/40 39/120/40 47/70/40
f 47/70/34 55/127/34 63/71/34
f 63/71/34 15/109/34 31/69/34
o Cone.001
v -0.900000 0.000000 -0.005000
v -0.900000 0.000975 -0.004904
v -0.900000 0.001913 -0.004619
v -0.900000 0.002778 -0.004157
v -0.900000 0.003536 -0.003536
v -0.900000 0.004157 -0.002778
v -0.900000 0.004619 -0.001913
v -0.900000 0.004904 -0.000975
v -0.900000 0.005000 0.000000
v -0.900000 0.004904 0.000975
v -0.900000 0.004619 0.001913
v -0.900000 0.004157 0.002778
v -0.900000 0.003536 0.003536
v -0.900000 0.002778 0.004157
v -0.900000 0.001913 0.004619
v -0.900000 0.000975 0.004904
v -0.900000 0.000000 0.005000
v -0.900000 -0.000975 0.004904
v -0.900000 -0.001913 0.004619
v -0.900000 -0.002778 0.004157
v -0.900000 -0.003536 0.003536
v -0.900000 -0.004157 0.002778
v -0.900000 -0.004619 0.001913
v -0.900000 -0.004904 0.000975
v -0.900000 -0.005000 0.000000
v -0.900000 -0.004904 -0.000975
v -0.900000 -0.004619 -0.001913
v -0.900000 -0.004157 -0.002778
v -0.900000 -0.003536 -0.003536
v -0.900000 -0.002778 -0.004157
v -0.900000 -0.001913 -0.004619
v -0.900000 -0.000975 -0.004904
v -1.000000 -0.000000 0.000000
vn -0.0497 0.0979 -0.9940
vn -0.0497 0.2899 -0.9558
vn -0.0497 0.4708 -0.8808
vn -0.0497 0.6336 -0.7721
vn -0.0497 0.7721 -0.6336
vn -0.0497 0.8808 -0.4708
vn -0.0497 0.9558 -0.2899
vn -0.0497 0.9940 -0.0979
vn -0.0497 0.9940 0.0979
vn -0.0497 0.9558 0.2899
vn -0.0497 0.8808 0.4708
vn -0.0497 0.7721 0.6336
vn -0.0497 0.6336 0.7721
vn -0.0497 0.4708 0.8808
vn -0.0497 0.2899 0.9558
vn -0.0497 0.0979 0.9940
vn -0.0497 -0.0979 0.9940
vn -0.0497 -0.2899 0.9558
vn -0.0497 -0.4708 0.8808
vn -0.0497 -0.6336 0.7721
vn -0.0497 -0.7721 0.6336
vn -0.0497 -0.8808 0.4708
vn -0.0497 -0.9558 0.2899
vn -0.0497 -0.9940 0.0979
vn -0.0497 -0.9940 -0.0979
vn -0.0497 -0.9558 -0.2899
vn -0.0497 -0.8808 -0.4708
vn -0.0497 -0.7721 -0.6336
vn -0.0497 -0.6336 -0.7721
vn -0.0497 -0.4708 -0.8808
vn 1.0000 -0.0000 -0.0000
vn -0.0497 -0.2899 -0.9558
vn -0.0497 -0.0979 -0.9940
vt 0.250000 0.490000
vt 0.250000 0.250000
vt 0.296822 0.485388
vt 0.341844 0.471731
vt 0.383337 0.449553
vt 0.419706 0.419706
vt 0.449553 0.383337
vt 0.471731 0.341844
vt 0.485388 0.296822
vt 0.490000 0.250000
vt 0.485388 0.203178
vt 0.471731 0.158156
vt 0.449553 0.116663
vt 0.419706 0.080294
vt 0.383337 0.050447
vt 0.341844 0.028269
vt 0.296822 0.014612
vt 0.250000 0.010000
vt 0.203178 0.014612
vt 0.158156 0.028269
vt 0.116663 0.050447
vt 0.080294 0.080294
vt 0.050447 0.116663
vt 0.028269 0.158156
vt 0.014612 0.203178
vt 0.010000 0.250000
vt 0.014612 0.296822
vt 0.028269 0.341844
vt 0.050447 0.383337
vt 0.080294 0.419706
vt 0.116663 0.449553
vt 0.158156 0.471731
vt 0.796822 0.014612
vt 0.514612 0.203178
vt 0.703178 0.485388
vt 0.203178 0.485388
vt 0.750000 0.490000
vt 0.796822 0.485388
vt 0.841844 0.471731
vt 0.883337 0.449553
vt 0.919706 0.419706
vt 0.949553 0.383337
vt 0.971731 0.341844
vt 0.985388 0.296822
vt 0.990000 0.250000
vt 0.985388 0.203178
vt 0.971731 0.158156
vt 0.949553 0.116663
vt 0.919706 0.080294
vt 0.883337 0.050447
vt 0.841844 0.028269
vt 0.750000 0.010000
vt 0.703178 0.014612
vt 0.658156 0.028269
vt 0.616663 0.050447
vt 0.580294 0.080294
vt 0.550447 0.116663
vt 0.528269 0.158156
vt 0.510000 0.250000
vt 0.514612 0.296822
vt 0.528269 0.341844
vt 0.550447 0.383337
vt 0.580294 0.419706
vt 0.616663 0.449553
vt 0.658156 0.471731
s 0
f 65/131/41 97/132/41 66/133/41
f 66/133/42 97/132/42 67/134/42
f 67/134/43 97/132/43 68/135/43
f 68/135/44 97/132/44 69/136/44
f 69/136/45 97/132/45 70/137/45
f 70/137/46 97/132/46 71/138/46
f 71/138/47 97/132/47 72/139/47
f 72/139/48 97/132/48 73/140/48
f 73/140/49 97/132/49 74/141/49
f 74/141/50 97/132/50 75/142/50
f 75/142/51 97/132/51 76/143/51
f 76/143/52 97/132/52 77/144/52
f 77/144/53 97/132/53 78/145/53
f 78/145/54 97/132/54 79/146/54
f 79/146/55 97/132/55 80/147/55
f 80/147/56 97/132/56 81/148/56
f 81/148/57 97/132/57 82/149/57
f 82/149/58 97/132/58 83/150/58
f 83/150/59 97/132/59 84/151/59
f 84/151/60 97/132/60 85/152/60
f 85/152/61 97/132/61 86/153/61
f 86/153/62 97/132/62 87/154/62
f 87/154/63 97/132/63 88/155/63
f 88/155/64 97/132/64 89/156/64
f 89/156/65 97/132/65 90/157/65
f 90/157/66 97/132/66 91/158/66
f 91/158/67 97/132/67 92/159/67
f 92/159/68 97/132/68 93/160/68
f 93/160/69 97/132/69 94/161/69
f 94/161/70 97/132/70 95/162/70
f 80/163/71 88/164/71 96/165/71
f 95/162/72 97/132/72 96/166/72
f 96/166/73 97/132/73 65/131/73
f 96/165/71 65/167/71 66/168/71
f 66/168/71 67/169/71 68/170/71
f 68/170/71 69/171/71 70/172/71
f 70/172/71 71/173/71 72/174/71
f 72/174/71 73/175/71 74/176/71
f 74/176/71 75/177/71 76/178/71
f 76/178/71 77/179/71 78/180/71
f 78/180/71 79/181/71 80/163/71
f 80/163/71 81/182/71 82/183/71
f 82/183/71 83/184/71 84/185/71
f 84/185/71 85/186/71 86/187/71
f 86/187/71 87/188/71 88/164/71
f 88/164/71 89/189/71 90/190/71
f 90/190/71 91/191/71 92/192/71
f 92/192/71 93/193/71 94/194/71
f 94/194/71 95/195/71 96/165/71
f 96/165/71 66/168/71 68/170/71
f 68/170/71 70/172/71 72/174/71
f 72/174/71 74/176/71 76/178/71
f 76/178/71 78/180/71 80/163/71
f 80/163/71 82/183/71 84/185/71
f 84/185/71 86/187/71 88/164/71
f 88/164/71 90/190/71 92/192/71
f 92/192/71 94/194/71 96/165/71
f 96/165/71 68/170/71 72/174/71
f 72/174/71 76/178/71 80/163/71
f 80/163/71 84/185/71 88/164/71
f 88/164/71 92/192/71 96/165/71
f 96/165/71 72/174/71 80/163/71
o Cone.005
v 0.900000 -0.000000 -0.005000
v 0.900000 -0.000975 -0.004904
v 0.900000 -0.001913 -0.004619
v 0.900000 -0.002778 -0.004157
v 0.900000 -0.003536 -0.003536
v 0.900000 -0.004157 -0.002778
v 0.900000 -0.004619 -0.001913
v 0.900000 -0.004904 -0.000975
v 0.900000 -0.005000 0.000000
v 0.900000 -0.004904 0.000975
v 0.900000 -0.004619 0.001913
v 0.900000 -0.004157 0.002778
v 0.900000 -0.003536 0.003536
v 0.900000 -0.002778 0.004157
v 0.900000 -0.001913 0.004619
v 0.900000 -0.000975 0.004904
v 0.900000 -0.000000 0.005000
v 0.900000 0.000975 0.004904
v 0.900000 0.001913 0.004619
v 0.900000 0.002778 0.004157
v 0.900000 0.003536 0.003536
v 0.900000 0.004157 0.002778
v 0.900000 0.004619 0.001913
v 0.900000 0.004904 0.000975
v 0.900000 0.005000 0.000000
v 0.900000 0.004904 -0.000975
v 0.900000 0.004619 -0.001913
v 0.900000 0.004157 -0.002778
v 0.900000 0.003536 -0.003536
v 0.900000 0.002778 -0.004157
v 0.900000 0.001913 -0.004619
v 0.900000 0.000975 -0.004904
v 1.000000 0.000000 0.000000
vn 0.0497 -0.0979 -0.9940
vn 0.0497 -0.2899 -0.9558
vn 0.0497 -0.4708 -0.8808
vn 0.0497 -0.6336 -0.7721
vn 0.0497 -0.7721 -0.6336
vn 0.0497 -0.8808 -0.4708
vn 0.0497 -0.9558 -0.2899
vn 0.0497 -0.9940 -0.0979
vn 0.0497 -0.9940 0.0979
vn 0.0497 -0.9558 0.2899
vn 0.0497 -0.8808 0.4708
vn 0.0497 -0.7721 0.6336
vn 0.0497 -0.6336 0.7721
vn 0.0497 -0.4708 0.8808
vn 0.0497 -0.2899 0.9558
vn 0.0497 -0.0979 0.9940
vn 0.0497 0.0979 0.9940
vn 0.0497 0.2899 0.9558
vn 0.0497 0.4708 0.8808
vn 0.0497 0.6336 0.7721
vn 0.0497 0.7721 0.6336
vn 0.0497 0.8808 0.4708
vn 0.0497 0.9558 0.2899
vn 0.0497 0.9940 0.0979
vn 0.0497 0.9940 -0.0979
vn 0.0497 0.9558 -0.2899
vn 0.0497 0.8808 -0.4708
vn 0.0497 0.7721 -0.6336
vn 0.0497 0.6336 -0.7721
vn 0.0497 0.4708 -0.8808
vn -1.0000 -0.0000 -0.0000
vn 0.0497 0.2899 -0.9558
vn 0.0497 0.0979 -0.9940
vt 0.250000 0.490000
vt 0.250000 0.250000
vt 0.296822 0.485388
vt 0.341844 0.471731
vt 0.383337 0.449553
vt 0.419706 0.419706
vt 0.449553 0.383337
vt 0.471731 0.341844
vt 0.485388 0.296822
vt 0.490000 0.250000
vt 0.485388 0.203178
vt 0.471731 0.158156
vt 0.449553 0.116663
vt 0.419706 0.080294
vt 0.383337 0.050447
vt 0.341844 0.028269
vt 0.296822 0.014612
vt 0.250000 0.010000
vt 0.203178 0.014612
vt 0.158156 0.028269
vt 0.116663 0.050447
vt 0.080294 0.080294
vt 0.050447 0.116663
vt 0.028269 0.158156
vt 0.014612 0.203178
vt 0.010000 0.250000
vt 0.014612 0.296822
vt 0.028269 0.341844
vt 0.050447 0.383337
vt 0.080294 0.419706
vt 0.116663 0.449553
vt 0.158156 0.471731
vt 0.796822 0.014612
vt 0.514612 0.203178
vt 0.703178 0.485388
vt 0.203178 0.485388
vt 0.750000 0.490000
vt 0.796822 0.485388
vt 0.841844 0.471731
vt 0.883337 0.449553
vt 0.919706 0.419706
vt 0.949553 0.383337
vt 0.971731 0.341844
vt 0.985388 0.296822
vt 0.990000 0.250000
vt 0.985388 0.203178
vt 0.971731 0.158156
vt 0.949553 0.116663
vt 0.919706 0.080294
vt 0.883337 0.050447
vt 0.841844 0.028269
vt 0.750000 0.010000
vt 0.703178 0.014612
vt 0.658156 0.028269
vt 0.616663 0.050447
vt 0.580294 0.080294
vt 0.550447 0.116663
vt 0.528269 0.158156
vt 0.510000 0.250000
vt 0.514612 0.296822
vt 0.528269 0.341844
vt 0.550447 0.383337
vt 0.580294 0.419706
vt 0.616663 0.449553
vt 0.658156 0.471731
s 0
f 98/196/74 130/197/74 99/198/74
f 99/198/75 130/197/75 100/199/75
f 100/199/76 130/197/76 101/200/76
f 101/200/77 130/197/77 102/201/77
f 102/201/78 130/197/78 103/202/78
f 103/202/79 130/197/79 104/203/79
f 104/203/80 130/197/80 105/204/80
f 105/204/81 130/197/81 106/205/81
f 106/205/82 130/197/82 107/206/82
f 107/206/83 130/197/83 108/207/83
f 108/207/84 130/197/84 109/208/84
f 109/208/85 130/197/85 110/209/85
f 110/209/86 130/197/86 111/210/86
f 111/210/87 130/197/87 112/211/87
f 112/211/88 130/197/88 113/212/88
f 113/212/89 130/197/89 114/213/89
f 114/213/90 130/197/90 115/214/90
f 115/214/91 130/197/91 116/215/91
f 116/215/92 130/197/92 117/216/92
f 117/216/93 130/197/93 118/217/93
f 118/217/94 130/197/94 119/218/94
f 119/218/95 130/197/95 120/219/95
f 120/219/96 130/197/96 121/220/96
f 121/220/97 130/197/97 122/221/97
f 122/221/98 130/197/98 123/222/98
f 123/222/99 130/197/99 124/223/99
f 124/223/100 130/197/100 125/224/100
f 125/224/101 130/197/101 126/225/101
f 126/225/102 130/197/102 127/226/102
f 127/226/103 130/197/103 128/227/103
f 113/228/104 121/229/104 129/230/104
f 128/227/105 130/197/105 129/231/105
f 129/231/106 130/197/106 98/196/106
f 129/230/104 98/232/104 99/233/104
f 99/233/104 100/234/104 101/235/104
f 101/235/104 102/236/104 103/237/104
f 103/237/104 104/238/104 105/239/104
f 105/239/104 106/240/104 107/241/104
f 107/241/104 108/242/104 109/243/104
f 109/243/104 110/244/104 111/245/104
f 111/245/104 112/246/104 113/228/104
f 113/228/104 114/247/104 115/248/104
f 115/248/104 116/249/104 117/250/104
f 117/250/104 118/251/104 119/252/104
f 119/252/104 120/253/104 121/229/104
f 121/229/104 122/254/104 123/255/104
f 123/255/104 124/256/104 125/257/104
f 125/257/104 126/258/104 127/259/104
f 127/259/104 128/260/104 129/230/104
f 129/230/104 99/233/104 101/235/104
f 101/235/104 103/237/104 105/239/104
f 105/239/104 107/241/104 109/243/104
f 109/243/104 111/245/104 113/228/104
f 113/228/104 115/248/104 117/250/104
f 117/250/104 119/252/104 121/229/104
f 121/229/104 123/255/104 125/257/104
f 125/257/104 127/259/104 129/230/104
f 129/230/104 101/235/104 105/239/104
f 105/239/104 109/243/104 113/228/104
f 113/228/104 117/250/104 121/229/104
f 121/229/104 125/257/104 129/230/104
f 129/230/104 105/239/104 113/228/104
